<svg xmlns="http://www.w3.org/2000/svg" viewBox="0 0 640 380" width="640" height="380">
<rect width="640" height="380" fill="#ffffff" />
<text x="320.0" y="28" font-family="Inter,Helvetica,Arial,sans-serif" font-size="16" font-weight="600" fill="#111827" text-anchor="middle">code_pub: pass_at_1 -- baseline vs best-of-8</text>
<text x="320.0" y="48" font-family="Inter,Helvetica,Arial,sans-serif" font-size="12" fill="#374151" text-anchor="middle">lift: +100.0 pp  |  non-overlap CI: YES  |  cost mult: 8x</text>
<rect x="70" y="70" width="540" height="240" fill="none" stroke="#d1d5db" stroke-width="1" />
<line x1="70" y1="310.0" x2="610" y2="310.0" stroke="#e5e7eb" stroke-width="1" /><text x="62" y="314.0" font-family="Inter,Helvetica,Arial,sans-serif" font-size="11" fill="#374151" text-anchor="end">0.00</text><line x1="70" y1="250.0" x2="610" y2="250.0" stroke="#e5e7eb" stroke-width="1" /><text x="62" y="254.0" font-family="Inter,Helvetica,Arial,sans-serif" font-size="11" fill="#374151" text-anchor="end">0.25</text><line x1="70" y1="190.0" x2="610" y2="190.0" stroke="#e5e7eb" stroke-width="1" /><text x="62" y="194.0" font-family="Inter,Helvetica,Arial,sans-serif" font-size="11" fill="#374151" text-anchor="end">0.50</text><line x1="70" y1="130.0" x2="610" y2="130.0" stroke="#e5e7eb" stroke-width="1" /><text x="62" y="134.0" font-family="Inter,Helvetica,Arial,sans-serif" font-size="11" fill="#374151" text-anchor="end">0.75</text><line x1="70" y1="70.0" x2="610" y2="70.0" stroke="#e5e7eb" stroke-width="1" /><text x="62" y="74.0" font-family="Inter,Helvetica,Arial,sans-serif" font-size="11" fill="#374151" text-anchor="end">1.00</text>
<rect x="170.0" y="310.0" width="120" height="0.0" fill="#94a3b8" rx="4" /><rect x="390.0" y="70.0" width="120" height="240.0" fill="#2563eb" rx="4" />
<line x1="230.0" y1="310.0" x2="230.0" y2="310.0" stroke="#1f2937" stroke-width="2" /><line x1="222.0" y1="310.0" x2="238.0" y2="310.0" stroke="#1f2937" stroke-width="2" /><line x1="222.0" y1="310.0" x2="238.0" y2="310.0" stroke="#1f2937" stroke-width="2" /><line x1="450.0" y1="70.0" x2="450.0" y2="70.0" stroke="#1f2937" stroke-width="2" /><line x1="442.0" y1="70.0" x2="458.0" y2="70.0" stroke="#1f2937" stroke-width="2" /><line x1="442.0" y1="70.0" x2="458.0" y2="70.0" stroke="#1f2937" stroke-width="2" />
<text x="230.0" y="334.0" font-family="Inter,Helvetica,Arial,sans-serif" font-size="12" fill="#111827" text-anchor="middle">baseline (n=1)</text><text x="450.0" y="334.0" font-family="Inter,Helvetica,Arial,sans-serif" font-size="12" fill="#111827" text-anchor="middle">best-of-8</text><text x="230.0" y="302.0" font-family="Inter,Helvetica,Arial,sans-serif" font-size="13" fill="#111827" text-anchor="middle">0.000</text><text x="450.0" y="62.0" font-family="Inter,Helvetica,Arial,sans-serif" font-size="13" fill="#111827" text-anchor="middle">1.000</text><text x="230.0" y="352.0" font-family="Inter,Helvetica,Arial,sans-serif" font-size="10" fill="#111827" text-anchor="middle">temp 0.0</text><text x="450.0" y="352.0" font-family="Inter,Helvetica,Arial,sans-serif" font-size="10" fill="#111827" text-anchor="middle">temp 0.8</text>
<text x="70" y="366" font-family="Inter,Helvetica,Arial,sans-serif" font-size="10" fill="#6b7280">run_label: trackc_bo8_demo  |  metric domain: [0, 1]  |  whiskers: bootstrap 95% CI</text>
</svg>
